<?xml version="1.0" encoding="utf-8"?>
<!-- Generator: Adobe Illustrator 26.2.1, SVG Export Plug-In . SVG Version: 6.00 Build 0)  -->
<svg version="1.1" id="katman_1" xmlns="http://www.w3.org/2000/svg" xmlns:xlink="http://www.w3.org/1999/xlink" x="0px" y="0px"
	 viewBox="0 0 343 343" style="enable-background:new 0 0 343 343;" xml:space="preserve">
<style type="text/css">
	.st0{fill:#FFFFFF;}
</style>
<g>
	<path class="st0" d="M327.5,47.4c-8.4-3.5-18.1-1.6-24.5,4.9l-84.4,84.5v45.9L309,92.2v150.6H158.7l-17.3-28.2l-60.5,60.6H319
		c12.4,0,22.5-10.1,22.5-22.5V68.1C341.5,59,336.1,50.9,327.5,47.4z"/>
	<path class="st0" d="M103.8,242.7H79.9l99.7-99.7v93.1H212v-117c0-9.1-5.5-17.3-13.9-20.8c-8.4-3.5-18.1-1.6-24.5,4.9L1.4,275.3
		h69.9L103.8,242.7z"/>
	<path class="st0" d="M178.2,242.8L178.2,242.8h-64.9l-32.5,32.5h108.8c12.4,0,22.5-10.1,22.5-22.5v-9.9H178.2L178.2,242.8z"/>
</g>
</svg>
