<?xml version="1.0" encoding="utf-8"?>
<!-- Generator: Adobe Illustrator 26.2.1, SVG Export Plug-In . SVG Version: 6.00 Build 0)  -->
<svg version="1.1" id="katman_1" xmlns="http://www.w3.org/2000/svg" xmlns:xlink="http://www.w3.org/1999/xlink" x="0px" y="0px"
	 viewBox="0 0 343 343" style="enable-background:new 0 0 343 343;" xml:space="preserve">
<style type="text/css">
	.st0{fill:#FFFFFF;}
</style>
<g>
	<path class="st0" d="M170.9,2.8C77.6,2.4,3.3,78.5,3.3,171.6c0,93.6,74,169.2,167.4,168.6c97.2-0.7,167.7-76.9,168.9-166.4
		C340.9,84.7,270.1,3.3,170.9,2.8z M108.9,173c-0.3,33.2,29.6,62.8,62.7,62.7c26.5,1.5,51.9-15.9,61.9-40.1
		c18.1-0.1,36.1-0.2,54.2,0c-6.6,28.6-23.6,55.2-48.4,71.4c-27.8,19.7-64.4,24.9-97,16.1c-30.8-8.6-58-30.2-72.4-58.9
		c-15-28.7-17.3-63.8-5.6-94.1C74,103.6,94,80.9,119,67.7c30.6-16.6,69-18,100.8-4c34,14.5,59.5,46,67.8,81.9
		c-18.4,0.1-36.8,0.7-55.2-0.3c-10.9-30.5-48.6-46.7-78.8-36.1C126.9,117.4,106.8,144.7,108.9,173z"/>
</g>
</svg>
