<svg width="321" height="112" viewBox="0 0 321 112" fill="none" xmlns="http://www.w3.org/2000/svg">
<rect x="15.5" y="0.5" width="305" height="95" rx="4.5" stroke="white"/>
<g style="mix-blend-mode:screen">
<path fill-rule="evenodd" clip-rule="evenodd" d="M86 48.0451C86 60.4715 75.9264 70.5451 63.5 70.5451C51.0736 70.5451 41 60.4715 41 48.0451C41 35.6187 51.0736 25.5451 63.5 25.5451C75.9264 25.5451 86 35.6187 86 48.0451ZM71.8355 56.4395C72.34 55.8486 72.3119 54.9614 71.7515 54.4035C71.1615 53.8161 70.2051 53.8161 69.6152 54.4035L63.5725 60.4192L63.4884 60.51C62.984 61.1009 63.012 61.9881 63.5725 62.546C64.1625 63.1334 65.1188 63.1334 65.7088 62.546L71.7515 56.5302L71.8355 56.4395ZM72.1938 44.9396C72.1938 39.9562 68.1359 35.9162 63.1301 35.9162C58.1244 35.9162 54.0664 39.9562 54.0664 44.9396C54.0664 49.9231 58.1244 53.963 63.1301 53.963C68.1359 53.963 72.1938 49.9231 72.1938 44.9396ZM57.0876 44.9396C57.0876 41.6172 59.793 38.924 63.1301 38.924C66.4674 38.924 69.1726 41.6172 69.1726 44.9396C69.1726 48.2621 66.4674 50.9552 63.1301 50.9552C59.793 50.9552 57.0876 48.2621 57.0876 44.9396ZM75.2151 37.4201C75.2151 36.5894 74.5389 35.9162 73.7046 35.9162C72.8702 35.9162 72.194 36.5894 72.194 37.4201C72.194 38.2508 72.8702 38.924 73.7046 38.924C74.5389 38.924 75.2151 38.2508 75.2151 37.4201Z" fill="white"/>
<path d="M70.4729 77.5382C70.0992 77.5382 69.7625 77.2836 69.6721 76.9058C69.5694 76.4623 69.8446 76.0229 70.284 75.9202C83.4662 72.8403 92.6733 61.2227 92.6733 47.6626C92.6733 32.0082 80.4273 19.2736 64.7975 18.6699C64.3458 18.6535 63.9927 18.2715 64.0091 17.8157C64.0255 17.364 64.3951 17.0149 64.8633 17.0272C81.3801 17.6679 94.3159 31.1212 94.3159 47.6626C94.3159 54.6233 91.9218 61.4362 87.5728 66.8487C83.2896 72.1832 77.2817 75.9695 70.6577 77.5177C70.5961 77.5341 70.5304 77.5382 70.4688 77.5382H70.4729Z" fill="url(#paint0_linear_1335_4347)"/>
<path d="M62.4855 78.2939C62.4855 78.2939 62.465 78.2939 62.4527 78.2939C45.9358 77.6573 33 64.1999 33 47.6585C33 40.6731 35.4106 33.8438 39.7882 28.419C44.1002 23.0763 50.141 19.2941 56.7937 17.7705C57.2331 17.6679 57.6767 17.9471 57.7793 18.3865C57.882 18.83 57.6027 19.2695 57.1633 19.3721C50.8638 20.8135 45.1474 24.3904 41.0695 29.4498C36.9259 34.583 34.6468 41.0509 34.6468 47.6585C34.6468 63.3129 46.8927 76.0475 62.5225 76.6512C62.9742 76.6676 63.3274 77.0496 63.3109 77.5054C63.2945 77.9489 62.929 78.2939 62.4896 78.2939H62.4855Z" fill="url(#paint1_linear_1335_4347)"/>
<path d="M66.2348 16.5755C65.894 16.2182 65.4341 16.0129 64.9413 16.0006C64.4444 15.9883 63.9762 16.169 63.6189 16.5098C63.2617 16.8507 63.0563 17.3106 63.044 17.8034C63.0317 18.2962 63.2124 18.7685 63.5532 19.1257C63.8941 19.483 64.354 19.6883 64.8468 19.7007C64.8632 19.7007 64.8797 19.7007 64.8961 19.7007C65.3725 19.7007 65.8242 19.52 66.1691 19.1914C66.5264 18.8506 66.7317 18.3906 66.7441 17.8978C66.7564 17.4051 66.5757 16.9328 66.2348 16.5755Z" fill="white"/>
<path d="M63.7667 76.1913C63.4259 75.834 62.966 75.6287 62.4732 75.6164C61.4465 75.5917 60.6005 76.4007 60.5759 77.4192C60.5636 77.9119 60.7443 78.3842 61.0851 78.7415C61.426 79.0988 61.8859 79.3041 62.3787 79.3164C62.3951 79.3164 62.4116 79.3164 62.428 79.3164C63.4259 79.3164 64.2513 78.5156 64.276 77.5136C64.2883 77.0208 64.1076 76.5486 63.7667 76.1913Z" fill="white"/>
</g>
<path opacity="0.6" d="M115.507 18.776H112.253V29H113.938V25.4576H115.507C117.61 25.4576 119.05 24.0032 119.05 22.1168C119.05 20.2304 117.61 18.776 115.507 18.776ZM115.493 23.8736H113.938V20.36H115.493C116.688 20.36 117.394 21.1232 117.394 22.1168C117.394 23.1104 116.688 23.8736 115.493 23.8736ZM133.04 23.888C133.04 20.936 130.678 18.6032 127.755 18.6032C124.818 18.6032 122.47 20.936 122.47 23.888C122.47 26.84 124.818 29.1728 127.755 29.1728C130.678 29.1728 133.04 26.84 133.04 23.888ZM124.17 23.888C124.17 21.8576 125.725 20.2304 127.755 20.2304C129.771 20.2304 131.326 21.8576 131.326 23.888C131.326 25.9184 129.771 27.5456 127.755 27.5456C125.725 27.5456 124.17 25.9184 124.17 23.888ZM145.224 29H146.78L149.429 18.776H147.644L145.772 26.2064L142.848 18.6032L139.925 26.2064L138.053 18.776H136.282L138.917 29H140.472L142.848 22.7504L145.224 29ZM153.357 29H159.506V27.3872H155.042V24.6224H158.642V23.0096H155.042V20.3888H159.506V18.776H153.357V29ZM163.843 29H165.528V24.5072H166.291L170.035 29H172.109L168.307 24.4064C169.776 24.0608 170.626 23.1248 170.626 21.6848C170.626 20 169.431 18.776 167.53 18.776H163.843V29ZM165.528 23.0384V20.3312H167.328C168.322 20.3312 168.941 20.8064 168.941 21.6848C168.941 22.5632 168.322 23.0384 167.328 23.0384H165.528ZM175.525 29H181.673V27.3872H177.209V24.6224H180.809V23.0096H177.209V20.3888H181.673V18.776H175.525V29ZM186.011 29H189.15C192.188 29 194.507 26.7824 194.507 23.888C194.507 20.9936 192.188 18.776 189.15 18.776H186.011V29ZM187.695 27.4304V20.3456H189.15C191.339 20.3456 192.793 21.8864 192.793 23.888C192.793 25.8896 191.339 27.4304 189.15 27.4304H187.695ZM204.55 29H208.524C210.468 29 211.822 27.704 211.822 26.0048C211.822 24.7376 211.116 23.96 210.18 23.5712C210.742 23.1536 211.13 22.5056 211.13 21.5984C211.13 20.072 209.906 18.776 208.078 18.776H204.55V29ZM206.234 23.0816V20.3168H207.991C208.913 20.3168 209.474 20.9504 209.474 21.6992C209.474 22.4768 208.913 23.0816 207.991 23.0816H206.234ZM206.234 27.4592V24.5216H208.481C209.575 24.5216 210.18 25.1552 210.18 25.9904C210.18 26.84 209.561 27.4592 208.481 27.4592H206.234ZM218.223 29H219.908V24.6944L223.796 18.776H221.809L219.058 23.0096L216.322 18.776H214.35L218.223 24.68V29Z" fill="white"/>
<path d="M119.4 73H125.24V50.12H132.88V44.6H111.84V50.12H119.4V73ZM134.823 73H140.303V63.24C140.303 59.4 142.223 57.56 144.743 57.56C147.023 57.56 148.263 59.32 148.263 62.2V73H153.743V61.28C153.743 56.08 150.863 52.56 146.023 52.56C143.423 52.56 141.343 53.68 140.303 55.28V43H134.823V73ZM177.008 66.48H171.288C170.648 67.84 168.968 68.68 167.048 68.68C163.648 68.68 161.888 66.64 161.648 64.28H177.248C177.528 56.76 172.688 52.56 166.808 52.56C160.728 52.56 156.288 57 156.288 62.96C156.288 69.04 160.648 73.44 166.768 73.44C171.848 73.44 175.808 70.52 177.008 66.48ZM166.648 57C168.528 57 170.568 58 171.248 60.68H161.848C162.368 58.48 164.128 57 166.648 57ZM186.822 58.8C186.822 67.04 193.102 73.48 201.782 73.48C210.222 73.48 217.062 67.68 215.782 56H201.102V61.44H209.782C209.142 65.36 206.382 67.88 201.782 67.88C196.262 67.88 192.662 63.88 192.662 58.8C192.662 53.72 196.262 49.72 201.702 49.72C204.422 49.72 207.062 50.92 208.462 53H215.102C213.182 47.64 207.662 44.12 201.702 44.12C193.102 44.12 186.822 50.56 186.822 58.8ZM218.656 73H224.136V63.44C224.136 60.16 225.856 58.12 228.456 58.12C229.336 58.12 230.096 58.28 230.936 58.56V53C230.256 52.8 229.656 52.76 229.096 52.76C226.856 52.76 224.816 54.24 224.136 56.2V53H218.656V73ZM231.254 63C231.254 68.68 235.334 73.44 240.654 73.44C243.414 73.44 245.534 72.04 246.414 70.76V73H251.894V53H246.414V55.24C245.534 53.96 243.414 52.56 240.654 52.56C235.334 52.56 231.254 57.32 231.254 63ZM246.854 63C246.854 66.12 244.814 68.44 241.814 68.44C238.814 68.44 236.774 66.12 236.774 63C236.774 59.88 238.814 57.56 241.814 57.56C244.814 57.56 246.854 59.88 246.854 63ZM256.021 81.36H261.501V70.76C262.421 72.04 264.541 73.44 267.301 73.44C272.621 73.44 276.701 68.68 276.701 63C276.701 57.32 272.621 52.56 267.301 52.56C264.541 52.56 262.421 53.96 261.501 55.24V53H256.021V81.36ZM271.141 63C271.141 66.12 269.101 68.44 266.101 68.44C263.101 68.44 261.061 66.12 261.061 63C261.061 59.88 263.101 57.56 266.101 57.56C269.101 57.56 271.141 59.88 271.141 63ZM279.509 73H284.989V63.24C284.989 59.4 286.909 57.56 289.429 57.56C291.709 57.56 292.949 59.32 292.949 62.2V73H298.429V61.28C298.429 56.08 295.549 52.56 290.709 52.56C288.109 52.56 286.029 53.68 284.989 55.28V43H279.509V73Z" fill="white"/>
<defs>
<linearGradient id="paint0_linear_1335_4347" x1="79.1666" y1="18.5754" x2="79.1666" y2="76.2241" gradientUnits="userSpaceOnUse">
<stop stop-color="white"/>
<stop offset="0.76" stop-color="white" stop-opacity="0.6"/>
</linearGradient>
<linearGradient id="paint1_linear_1335_4347" x1="48.1534" y1="77.5834" x2="48.1534" y2="18.5713" gradientUnits="userSpaceOnUse">
<stop stop-color="white"/>
<stop offset="0.76" stop-color="white" stop-opacity="0.6"/>
</linearGradient>
</defs>
</svg>
