<?xml version="1.0" encoding="utf-8"?>
<!-- Generator: Adobe Illustrator 26.2.1, SVG Export Plug-In . SVG Version: 6.00 Build 0)  -->
<svg version="1.1" id="katman_1" xmlns="http://www.w3.org/2000/svg" xmlns:xlink="http://www.w3.org/1999/xlink" x="0px" y="0px"
	 viewBox="0 0 343 343" style="enable-background:new 0 0 343 343;" xml:space="preserve">
<style type="text/css">
	.st0{fill:#FFFFFF;}
	.st1{fill-rule:evenodd;clip-rule:evenodd;fill:#FFFFFF;}
</style>
<g>
	<path class="st0" d="M140.7,81.6c-3.6-0.6-3.7-0.6-2-0.9c3.2-0.5,10.8,0.2,16,1.4c12.2,2.9,23.3,10.3,35.1,23.5l3.1,3.5l4.5-0.7
		c19-3,38.3-0.6,54.4,6.8c4.4,2.1,11.4,6.1,12.3,7.2c0.3,0.3,0.8,2.5,1.1,4.8c1.2,7.9,0.6,14-1.8,18.6c-1.3,2.5-1.4,3.3-0.5,5.4
		c0.7,1.7,2.7,2.9,4.6,2.9c4,0,8.3-6.5,10.3-15.5l0.8-3.6l1.6,1.8c8.6,9.8,15.4,23.1,16.6,32.6l0.3,2.5l-1.5-2.3
		c-2.5-3.9-5-6.5-8.2-8.6c-5.8-3.8-11.9-5.1-28.1-6c-14.7-0.8-22.9-2-31.2-4.7c-14-4.6-21-10.6-37.7-32.4
		c-7.4-9.7-11.9-15-16.5-19.4C163.8,88.8,153.6,83.6,140.7,81.6z"/>
	<path class="st0" d="M267.5,103.2c0.4-6.5,1.2-10.8,3-14.7c0.7-1.5,1.4-2.8,1.5-2.8s-0.2,1.1-0.7,2.5c-1.3,3.8-1.5,9-0.6,15
		c1.1,7.7,1.8,8.8,9.9,17c3.8,3.9,8.2,8.8,9.8,10.9l2.9,3.8l-2.9-2.7c-3.6-3.3-11.7-9.9-13.6-10.8c-1.2-0.6-1.4-0.6-2.1,0.1
		c-0.7,0.7-0.8,1.7-0.9,6.6c-0.1,7.6-1.2,12.5-3.7,17.3c-1.4,2.6-1.6,2.1-0.3-0.9c0.9-2.2,1-3.2,1-10.6c0-14.8-1.8-18.3-12.1-24.4
		c-2.6-1.5-6.9-3.8-9.5-4.9c-2.6-1.2-4.7-2.2-4.7-2.3c0.3-0.3,10.3,2.6,14.4,4.2c6,2.3,7,2.6,7.7,2.3
		C267,108.8,267.2,107.4,267.5,103.2z"/>
	<path class="st0" d="M147.6,128.5c-7.2-10-11.7-25.2-10.7-36.6l0.3-3.5l1.6,0.3c3.1,0.6,8.4,2.5,10.9,4.1
		c6.8,4.2,9.8,9.6,12.8,23.7c0.9,4.1,2,8.8,2.6,10.4c0.9,2.5,4.1,8.5,6.7,12.3c1.9,2.8,0.6,4.1-3.6,3.7
		C161.9,142.2,153.2,136.2,147.6,128.5z"/>
	<path class="st0" d="M258.7,202.6C224.9,189,213,177.2,213,157.2c0-2.9,0.1-5.3,0.2-5.3c0.1,0,1.4,1,2.9,2.2
		c6.9,5.5,14.5,7.8,35.8,10.9c12.5,1.8,19.5,3.3,26,5.4c20.6,6.8,33.4,20.7,36.4,39.6c0.9,5.5,0.4,15.8-1.1,21.2
		c-1.1,4.3-4.6,12-5.5,12.3c-0.3,0.1-0.5-0.9-0.6-2.2c-0.3-7.1-3.9-14-10-19.2C290.4,216.3,281.2,211.6,258.7,202.6z"/>
	<path class="st0" d="M235,208.2c-0.4-2.5-1.2-5.7-1.6-7.1l-0.9-2.6l1.6,1.8c2.2,2.5,4,5.7,5.5,9.9c1.1,3.2,1.3,4.2,1.3,9.5
		c0,5.2-0.1,6.2-1.2,9.2c-1.6,4.6-3.7,7.8-7.1,11.3c-6.2,6.3-14.1,9.8-25.6,11.2c-2,0.3-7.8,0.7-12.9,0.9c-12.9,0.7-21.3,2-28.9,4.7
		c-1.1,0.4-2.1,0.6-2.2,0.5c-0.3-0.3,4.9-3.4,9.1-5.4c6-2.9,12-4.5,25.5-6.7c6.6-1.1,13.5-2.4,15.2-3
		C229.2,237.3,237.7,224.3,235,208.2z"/>
	<path class="st0" d="M250.5,235.7c-4.5-9.6-5.5-19-3.1-27.7c0.3-0.9,0.7-1.7,0.9-1.7c0.3,0,1.3,0.6,2.4,1.3
		c2.1,1.4,6.2,3.7,17.3,9.8c13.8,7.5,21.7,13.3,27,20c4.7,5.8,7.6,12.5,9,20.6c0.8,4.6,0.3,15.6-0.8,20.2
		c-3.7,14.6-12.3,26-24.6,32.6c-1.8,1-3.4,1.8-3.6,1.8c-0.2,0,0.5-1.7,1.5-3.7c4.1-8.6,4.6-17.1,1.5-26.4
		c-1.9-5.7-5.8-12.7-13.7-24.5C255,244.2,252.7,240.6,250.5,235.7z"/>
	<path class="st0" d="M123.6,287.8c12.5-10.6,28.1-18.1,42.3-20.4c6.1-1,16.3-0.6,22,0.9c9.1,2.3,17.2,7.5,21.4,13.7
		c4.1,6.1,5.9,11.4,7.8,23.1c0.7,4.6,1.5,9.3,1.8,10.4c1.4,6.1,4.1,11,7.4,13.4c5.3,3.9,14.5,4.1,23.4,0.6c1.5-0.6,2.9-1,2.9-0.9
		c0.3,0.3-4.2,3.4-7.4,5c-4.3,2.1-7.7,3-12.3,3c-8.2,0-15.1-4.2-20.8-12.7c-1.1-1.7-3.6-6.7-5.6-11.2c-6-13.7-9-17.9-16-22.5
		c-6.1-4-13.9-4.7-19.8-1.8c-7.8,3.8-9.9,13.7-4.4,20c2.2,2.5,6.3,4.7,9.7,5.1c6.3,0.8,11.7-4,11.7-10.4c0-4.1-1.6-6.5-5.6-8.3
		c-5.5-2.5-11.3,0.4-11.3,5.5c0,2.2,1,3.6,3.2,4.6c1.4,0.6,1.4,0.7,0.3,0.4c-5-1-6.2-7.1-2.2-11.1c4.8-4.8,14.8-2.7,18.3,3.9
		c1.4,2.8,1.6,8.3,0.4,11.6c-2.8,7.4-11,11.3-19.3,9.2c-5.7-1.4-8-3-14.8-10.1c-11.9-12.2-16.5-14.6-33.6-17.3l-3.3-0.5L123.6,287.8
		z"/>
	<path class="st1" d="M34.1,13.8c39.6,48.1,100.8,123,103.8,127.2c2.5,3.5,1.6,6.6-2.7,9c-2.4,1.4-7.3,2.7-9.8,2.7
		c-2.8,0-5.9-1.3-8.2-3.5c-1.6-1.5-8.1-11.2-23.1-34.5C82.6,97,73,82.2,72.7,81.9c-0.6-0.6-0.6-0.6,20.2,36.6
		c13.1,23.4,17.5,31.6,17.5,32.7c0,2.2-0.6,3.4-3.4,6.5c-4.6,5.2-6.7,10.9-8.2,22.9c-1.7,13.4-6.4,22.9-19.4,39.2
		c-7.6,9.5-8.9,11.2-10.8,15.1c-2.4,4.8-3.1,7.5-3.4,13.6c-0.3,6.4,0.3,10.6,2.2,16.8c1.7,5.4,3.5,9,8.1,16.1
		c4,6.1,6.3,10.7,6.3,12.5c0,1.4,0.3,1.4,6.4,0c14.7-3.3,26.7-9.2,33.4-16.3c4.2-4.4,5.1-6.9,5.2-13c0-4-0.1-4.8-1.2-7.1
		c-1.7-3.7-4.9-6.8-11.9-11.6c-9.2-6.3-13.1-11.3-14.2-18.3c-0.9-5.7,0.1-9.7,5.2-20.4c5.3-11,6.6-15.7,7.5-26.9
		c0.6-7.2,1.4-10,3.4-12.3c2.2-2.4,4.1-3.2,9.4-3.9c8.7-1.2,14.2-3.4,18.8-7.6c3.9-3.6,5.6-7.1,5.8-12.4l0.2-4l-2.2-2.6
		C139.6,128.3,28.7,6.5,28.2,6.5C28.1,6.5,30.7,9.8,34.1,13.8z M86.3,255.9c1.8-3.2,0.8-7.3-2.2-9.3c-2.9-1.9-7.3-1-7.3,1.5
		c0,0.8,0.4,1.3,1.4,1.8c1.6,0.8,1.7,1.7,0.5,3.6c-1.3,1.9-1.2,3.6,0.3,4.7C81.3,259.9,84.6,258.9,86.3,255.9z"/>
	<path class="st1" d="M155.3,166.3c-4.1,1.3-8,5.6-9.3,10.1c-0.7,2.8-0.3,7.6,0.8,9.1c1.8,2.4,3.6,3.1,8.3,3c9.3-0.1,17.4-4,18.3-9
		c0.8-4.1-2.8-9.7-7.7-12.2C163.3,166,157.9,165.5,155.3,166.3z M166.2,174.8c1.4-2,0.8-4.2-1.6-5.7c-4.6-2.8-11.7-0.5-11.7,3.9
		c0,2.2,3.7,4.6,7,4.6C162.1,177.6,165.2,176.2,166.2,174.8z"/>
</g>
</svg>
