<svg width="100" height="24" viewBox="0 0 100 24" fill="none" xmlns="http://www.w3.org/2000/svg">
<g clip-path="url(#clip0_61_1605)">
<path d="M25.078 14.1225L20.6652 18.6825C20.2939 19.0725 20.2939 19.695 20.6652 20.085L24.0367 23.565C24.6119 24.15 25.5513 24.15 26.1265 23.565L36.4593 13.0575C37.0346 12.4725 37.0346 11.52 36.4593 10.935L26.1265 0.434966C25.5513 -0.150034 24.6119 -0.150034 24.0367 0.434966L20.6652 3.91497C20.2939 4.29747 20.2939 4.92747 20.6652 5.31747L25.078 9.87747C26.2285 11.0475 26.2285 12.9525 25.078 14.1225Z" fill="#0A6E5C"/>
<path d="M11.8108 14.1225L16.2236 18.6825C16.5949 19.0725 16.5949 19.695 16.2236 20.085L12.8521 23.565C12.2769 24.15 11.3375 24.15 10.7623 23.565L0.429489 13.0575C-0.145767 12.4725 -0.145767 11.52 0.429489 10.935L10.7623 0.434966C11.3375 -0.150034 12.2769 -0.150034 12.8521 0.434966L16.2236 3.91497C16.5949 4.29747 16.5949 4.92747 16.2236 5.31747L11.8108 9.87747C10.6603 11.0475 10.6603 12.9525 11.8108 14.1225Z" fill="#21BF73"/>
<path d="M12.9687 12.8699C12.5026 12.3899 12.5026 11.6174 12.9687 11.1374L17.5998 6.36745C18.0659 5.88745 18.8159 5.88745 19.2819 6.36745L23.9131 11.1374C24.3791 11.6174 24.3791 12.3899 23.9131 12.8699L19.2819 17.6399C18.8159 18.1199 18.0659 18.1199 17.5998 17.6399L12.9687 12.8699Z" fill="#21BF73"/>
<path d="M56.6596 19.2H53.3682L51.5551 14.31C51.4094 13.9275 51.1837 13.6575 50.8779 13.5075C50.5866 13.3575 50.2152 13.2825 49.7638 13.2825H47.7467V19.2075H44.6738V4.5H51.0017C52.6546 4.5 53.8998 4.875 54.7517 5.6175C55.6037 6.36 56.026 7.425 56.026 8.82C56.026 9.795 55.7712 10.635 55.2687 11.34C54.7736 12.045 54.0673 12.5475 53.1352 12.8475C53.9726 13.0275 54.577 13.6275 54.9483 14.6475L56.6668 19.2075L56.6596 19.2ZM50.5356 10.815C51.424 10.815 52.0793 10.665 52.4944 10.3575C52.9095 10.0425 53.1134 9.555 53.1134 8.895C53.1134 8.235 52.9095 7.755 52.4944 7.4475C52.0793 7.1325 51.4313 6.975 50.5356 6.975H47.703V10.815H50.5356Z" fill="#22272F"/>
<path d="M68.7324 8.72996V19.2H65.7614V17.655C65.4556 18.195 65.026 18.615 64.4653 18.915C63.9046 19.215 63.2711 19.3725 62.572 19.3725C61.6909 19.3725 60.9191 19.155 60.2346 18.7125C59.5719 18.27 59.0404 17.6475 58.6544 16.83C58.2831 16.005 58.0938 15.0525 58.0938 13.98C58.0938 12.9075 58.2831 11.9475 58.6544 11.1075C59.0404 10.2675 59.5719 9.62246 60.2491 9.16496C60.9263 8.69996 61.6982 8.45996 62.5647 8.45996C63.2711 8.45996 63.9046 8.61746 64.458 8.93246C65.0114 9.24746 65.4483 9.67496 65.7541 10.215V8.72996H68.7251H68.7324ZM63.4458 16.9875C64.1886 16.9875 64.7638 16.725 65.1643 16.2C65.5648 15.675 65.7614 14.9175 65.7614 13.9275C65.7614 12.9375 65.5648 12.18 65.1643 11.655C64.7638 11.115 64.1958 10.8525 63.4458 10.8525C62.6958 10.8525 62.1205 11.13 61.7128 11.6775C61.2977 12.225 61.0938 12.99 61.0938 13.9725C61.0938 14.955 61.2904 15.6975 61.6909 16.2225C62.106 16.7325 62.6885 16.9875 63.4458 16.9875Z" fill="#22272F"/>
<path d="M83.5352 8.46746C84.693 8.46746 85.5523 8.83496 86.113 9.56246C86.6882 10.275 86.9722 11.3775 86.9722 12.8625V19.2H83.9576V12.9675C83.9576 12.24 83.8411 11.715 83.6153 11.4C83.3896 11.07 83.0182 10.905 82.4939 10.905C81.8823 10.905 81.409 11.1225 81.074 11.565C80.739 12.0075 80.5789 12.6225 80.5789 13.425V19.2075H77.5642V12.975C77.5642 12.2625 77.4477 11.7375 77.2074 11.4075C76.9817 11.0775 76.6176 10.9125 76.1079 10.9125C75.4962 10.9125 75.0156 11.13 74.6734 11.5725C74.3384 12.015 74.1709 12.63 74.1709 13.4325V19.215H71.1563V11.7225C71.1563 10.605 71.1053 9.60746 70.9961 8.72996H73.8287L74.0107 10.2975C74.3166 9.70496 74.7389 9.25496 75.285 8.93246C75.8457 8.61746 76.4792 8.45996 77.2001 8.45996C78.7074 8.45996 79.705 9.10496 80.1929 10.4025C80.5279 9.80996 80.9866 9.34496 81.5692 8.99996C82.1663 8.63996 82.8216 8.45996 83.528 8.45996L83.5352 8.46746Z" fill="#22272F"/>
<path d="M95.5299 8.46746C96.3964 8.46746 97.1683 8.69996 97.8455 9.17246C98.5227 9.62996 99.047 10.275 99.4256 11.115C99.8115 11.955 100.001 12.9075 100.001 13.9875C100.001 15.0675 99.8188 16.0125 99.4402 16.8375C99.0688 17.6475 98.5445 18.2775 97.8673 18.72C97.1901 19.1625 96.411 19.38 95.5299 19.38C94.8236 19.38 94.19 19.23 93.6366 18.9225C93.0759 18.6225 92.6536 18.2025 92.3623 17.6625V24.0075H89.3477V11.7225C89.3477 10.605 89.2967 9.60746 89.1875 8.72996H92.0201L92.2167 10.4625C92.4861 9.83996 92.9085 9.35246 93.491 8.99996C94.0881 8.63996 94.7653 8.45996 95.5226 8.45996L95.5299 8.46746ZM94.6706 16.995C95.4134 16.995 95.9886 16.74 96.3891 16.23C96.7896 15.705 96.9862 14.955 96.9862 13.98C96.9862 13.005 96.7823 12.24 96.3673 11.685C95.9668 11.1375 95.4061 10.86 94.6706 10.86C93.9352 10.86 93.3454 11.13 92.9303 11.6625C92.5298 12.1875 92.3332 12.945 92.3332 13.935C92.3332 14.925 92.5298 15.6825 92.9303 16.2075C93.3454 16.7325 93.9206 16.995 94.6706 16.995Z" fill="#22272F"/>
</g>
<defs>
<clipPath id="clip0_61_1605">
<rect width="100" height="24" fill="white"/>
</clipPath>
</defs>
</svg>
